<?xml version="1.0" standalone="no"?>
<!DOCTYPE svg PUBLIC "-//W3C//DTD SVG 20010904//EN"
 "http://www.w3.org/TR/2001/REC-SVG-20010904/DTD/svg10.dtd">
<svg version="1.0" xmlns="http://www.w3.org/2000/svg"
 width="280.000000pt" height="280.000000pt" viewBox="0 0 280.000000 280.000000"
 preserveAspectRatio="xMidYMid meet">
<metadata>
Created by potrace 1.14, written by Peter Selinger 2001-2017
</metadata>
<g transform="translate(0.000000,280.000000) scale(0.100000,-0.100000)"
fill="#000000" stroke="none">
<path d="M1208 1945 c-1 -1 -25 -6 -53 -9 -84 -11 -201 -55 -278 -106 l-74
-48 -24 19 c-85 67 -104 79 -125 79 -40 0 -37 -19 13 -83 68 -86 68 -85 46
-110 -70 -83 -119 -195 -150 -347 -8 -40 -8 -232 0 -262 6 -23 13 -28 37 -28
17 0 29 3 28 8 -5 16 14 114 33 173 37 117 113 260 172 326 l20 23 375 -375
c263 -263 380 -374 393 -372 19 3 79 55 79 67 0 4 -171 178 -380 387 l-381
380 38 33 c55 49 160 114 228 143 63 26 197 63 250 69 30 3 33 19 5 26 -20 5
-247 11 -252 7z"/>
<path d="M2370 1771 c0 -54 4 -76 18 -90 42 -46 60 -68 76 -93 10 -15 22 -25
27 -22 5 3 8 2 7 -3 -4 -14 34 -63 45 -56 5 3 7 2 4 -4 -3 -5 7 -24 23 -41 16
-18 27 -32 25 -32 -2 0 7 -12 20 -26 14 -15 25 -30 25 -33 0 -6 -16 -25 -74
-93 -14 -16 -21 -28 -18 -28 4 0 0 -6 -8 -13 -9 -7 -33 -34 -55 -62 -22 -27
-45 -54 -51 -60 -6 -5 -23 -28 -38 -50 -21 -33 -26 -51 -26 -105 1 -53 3 -62
13 -49 36 47 74 95 92 115 11 12 34 39 50 60 17 21 38 46 48 56 9 10 15 18 12
18 -2 0 8 12 22 28 14 15 37 43 52 61 14 19 36 46 49 59 36 40 30 88 -19 147
-23 28 -44 52 -48 55 -4 3 -20 23 -34 45 -15 22 -27 35 -27 30 0 -6 -9 5 -20
23 -11 18 -34 46 -50 62 -17 17 -27 30 -23 30 4 0 -2 7 -13 15 -10 8 -15 15
-11 15 4 0 -6 13 -22 29 -16 16 -27 32 -24 35 4 3 -1 6 -10 6 -9 0 -17 6 -17
14 0 8 -4 18 -10 21 -6 4 -10 -20 -10 -64z"/>
<path d="M2084 1713 c-20 -65 -39 -122 -42 -128 -3 -5 -7 -16 -8 -25 -1 -8
-16 -58 -32 -110 -17 -52 -49 -156 -72 -230 -23 -74 -53 -168 -67 -210 -38
-115 -38 -109 11 -108 l43 0 42 137 c49 157 96 307 181 580 33 106 60 197 60
202 0 5 -18 9 -40 9 l-39 0 -37 -117z"/>
<path d="M410 1793 c0 -5 -13 -22 -28 -39 -15 -17 -40 -48 -57 -69 -16 -20
-39 -46 -49 -56 -11 -11 -17 -19 -13 -19 4 0 -6 -13 -23 -30 -17 -16 -28 -30
-25 -30 3 0 -8 -13 -25 -30 -17 -16 -28 -30 -24 -30 3 0 -8 -15 -26 -32 -103
-104 -103 -157 3 -270 14 -16 24 -28 21 -28 -2 0 9 -14 26 -30 17 -17 27 -30
23 -30 -4 0 2 -8 13 -19 10 -10 33 -35 49 -56 17 -20 39 -48 50 -60 26 -30 45
-53 73 -89 l22 -29 0 72 c0 44 -5 77 -12 85 -7 7 -26 30 -43 51 -89 111 -149
184 -180 218 -18 20 -31 37 -28 37 3 0 -1 8 -8 17 -10 11 -10 14 -2 9 7 -4 13
-3 13 2 0 5 11 21 25 36 13 14 22 26 20 26 -3 0 3 8 12 19 21 21 55 62 98 116
17 21 38 46 48 56 9 11 15 19 12 19 -2 0 7 12 20 26 22 23 25 37 25 95 0 38
-2 69 -5 69 -3 0 -5 -3 -5 -7z"/>
</g>
</svg>
